<svg width="32" height="32" viewBox="0 0 32 32" fill="none" xmlns="http://www.w3.org/2000/svg">
<path d="M20 5.33334C22.829 5.33334 25.5421 6.45714 27.5425 8.45753C29.5429 10.4579 30.6667 13.171 30.6667 16C30.6667 18.829 29.5429 21.5421 27.5425 23.5425C25.5421 25.5429 22.829 26.6667 20 26.6667C17.1711 26.6667 14.458 25.5429 12.4576 23.5425C10.4572 21.5421 9.33337 18.829 9.33337 16C9.33337 13.171 10.4572 10.4579 12.4576 8.45753C14.458 6.45714 17.1711 5.33334 20 5.33334ZM20 24C22.1218 24 24.1566 23.1572 25.6569 21.6569C27.1572 20.1566 28 18.1217 28 16C28 13.8783 27.1572 11.8434 25.6569 10.3431C24.1566 8.84286 22.1218 8 20 8C17.8783 8 15.8435 8.84286 14.3432 10.3431C12.8429 11.8434 12 13.8783 12 16C12 18.1217 12.8429 20.1566 14.3432 21.6569C15.8435 23.1572 17.8783 24 20 24ZM4.00004 16C4.00004 19.48 6.22671 22.44 9.33337 23.5333V26.32C4.73337 25.1333 1.33337 20.9733 1.33337 16C1.33337 11.0267 4.73337 6.86667 9.33337 5.68V8.46667C6.22671 9.56 4.00004 12.52 4.00004 16Z" fill="white"/>
</svg>
