<svg width="49" height="48" viewBox="0 0 49 48" fill="none" xmlns="http://www.w3.org/2000/svg">
<rect x="0.5" width="48" height="48" rx="24" fill="#212121"/>
<path fill-rule="evenodd" clip-rule="evenodd" d="M9.83337 22.3333C9.83337 15.52 16.42 10.3333 24.5 10.3333C32.58 10.3333 39.1667 15.52 39.1667 22.3333C39.1667 26.0866 37.04 29.4933 34.2867 32.2C31.5679 34.8147 28.3661 36.8753 24.86 38.2666C24.7085 38.3251 24.545 38.3458 24.3837 38.3269C24.2224 38.308 24.0681 38.2501 23.9342 38.1582C23.8003 38.0663 23.6908 37.9432 23.6151 37.7994C23.5395 37.6557 23.5 37.4957 23.5 37.3333V33.9733C15.92 33.6 9.83337 28.8933 9.83337 22.3333ZM17.8334 24.6666C18.096 24.6666 18.3561 24.6149 18.5987 24.5144C18.8414 24.4139 19.0619 24.2666 19.2476 24.0809C19.4333 23.8951 19.5806 23.6747 19.6811 23.432C19.7816 23.1894 19.8334 22.9293 19.8334 22.6666C19.8334 22.404 19.7816 22.1439 19.6811 21.9013C19.5806 21.6586 19.4333 21.4382 19.2476 21.2524C19.0619 21.0667 18.8414 20.9194 18.5987 20.8189C18.3561 20.7184 18.096 20.6666 17.8334 20.6666C17.3029 20.6666 16.7942 20.8774 16.4192 21.2524C16.0441 21.6275 15.8334 22.1362 15.8334 22.6666C15.8334 23.1971 16.0441 23.7058 16.4192 24.0809C16.7942 24.4559 17.3029 24.6666 17.8334 24.6666ZM24.5 24.6666C24.7627 24.6666 25.0228 24.6149 25.2654 24.5144C25.5081 24.4139 25.7285 24.2666 25.9143 24.0809C26.1 23.8951 26.2473 23.6747 26.3478 23.432C26.4483 23.1894 26.5 22.9293 26.5 22.6666C26.5 22.404 26.4483 22.1439 26.3478 21.9013C26.2473 21.6586 26.1 21.4382 25.9143 21.2524C25.7285 21.0667 25.5081 20.9194 25.2654 20.8189C25.0228 20.7184 24.7627 20.6666 24.5 20.6666C23.9696 20.6666 23.4609 20.8774 23.0858 21.2524C22.7108 21.6275 22.5 22.1362 22.5 22.6666C22.5 23.1971 22.7108 23.7058 23.0858 24.0809C23.4609 24.4559 23.9696 24.6666 24.5 24.6666ZM33.1667 22.6666C33.1667 23.1971 32.956 23.7058 32.5809 24.0809C32.2058 24.4559 31.6971 24.6666 31.1667 24.6666C30.6363 24.6666 30.1276 24.4559 29.7525 24.0809C29.3774 23.7058 29.1667 23.1971 29.1667 22.6666C29.1667 22.1362 29.3774 21.6275 29.7525 21.2524C30.1276 20.8774 30.6363 20.6666 31.1667 20.6666C31.6971 20.6666 32.2058 20.8774 32.5809 21.2524C32.956 21.6275 33.1667 22.1362 33.1667 22.6666Z" fill="white"/>
</svg>
